<?xml version="1.0" encoding="UTF-8"?>
<svg id="Layer_1" data-name="Layer 1" xmlns="http://www.w3.org/2000/svg" viewBox="0 0 739.87 831.39">
  <defs>
    <style>
      .cls-1 {
        fill: none;
        stroke: #000;
        stroke-linecap: round;
        stroke-linejoin: round;
        stroke-width: 19px;
      }

      .cls-2 {
        fill: #2461d3;
      }

      .cls-3 {
        fill: #bdc0f9;
        isolation: isolate;
        opacity: .43;
      }
    </style>
      <filter id="fuzpen" x="-20%" y="-20%" width="140%" height="140%">
      <feTurbulence type="fractalNoise" baseFrequency="0.011" numOctaves="2" seed="5" result="n"/>
      <feDisplacementMap in="SourceGraphic" in2="n" scale="22" xChannelSelector="R" yChannelSelector="G"/>
    </filter>
  </defs>
  <g filter="url(#fuzpen)">
  <path class="cls-3" d="M448.54,449.45c-1.65,0-67.88,23.21-98.68,25.63-30.8,2.43-73.1-.15-80.38-.16-.23,0-31.08-9.01-38.17-8.99-7.36.02-15.89.03-23.25,0-3.86,0-25.13,1.21-28.98,1.23-29.04.13-38.45-9.55-41.06-10.43-.82-.28-4.32-1.86-5.13-2.15-.23-.08-5.59-2.55-6.34-3.99,7.4-13.51-17.19-24.01-17.08-38.49v-2.38c0-2.25.02-4.5.03-6.75,0-1.39,0-2.77.02-4.15v-1.57c0-.73,2.22-23.27,2.22-24,0-.22,0,.23,0,0,0-.51-41.21.42-39.85-5.39.09-.38.17-.75.25-1.14,3.97-17.43,9.98-34.75,16.83-51.22.08-.2.17-.4.24-.59.37-.9-5.52-24.37-5.13-25.26.05-.1.18-.41.39-.92.11-.26.22-.52.34-.79.04-.22.09-.44.13-.66-.68-.97-1.21-18.95-2.33-19.17-28.76,30.66-70.26-38.55-68.5-127.74-.03-.25-.07-.51-.11-.75-.36-2.66-.62-5.31-.63-8v-2.36c0-.8,0-1.6-.02-2.41-.04-5.67,1.27-9.77,5.21-13.91,2.59-2.64,5.29-5.06,8.24-7.29.56-.43,1.11-.85,1.67-1.28,2.69-2.07,5.43-4.07,8.19-6.04.58-.42,1.16-.84,1.74-1.26,3.99-2.91,8.1-5.66,12.19-8.41,1.47-.99,2.93-1.98,4.39-2.98,5.16-3.51,10.37-6.94,15.62-10.33,1.5-.97,3-1.94,4.49-2.91,6.25-4.07,12.55-8.05,18.87-11.99.97-.61,1.96-1.22,2.93-1.83,7.58-4.75,15.19-9.43,22.86-14.05,1.11-.67,2.22-1.34,3.33-2.01,8.77-5.29,17.59-10.5,26.49-15.55,1.5-.85,3-1.7,4.49-2.58,3.87-2.25,7.78-4.39,11.75-6.44.73-.39,1.45-.79,2.17-1.21,3.1-1.77,6.12-2.86,9.56-3.73.53-.14,1.05-.28,1.58-.42,15.77-4.13,9.69,8.71,14.49,11.76,1.17.86,2.25,1.79,3.32,2.76.3.27,33.41,21.61,35.55,24.42.14.18-4.64,3.51-4.51,3.68.45.58.89,1.16,1.33,1.74.14.18.27.36.41.54.38.5.78.98,1.18,1.48.08.1-4.53-2.97-4.14-2.46.54.42,5.77,2.66,6.44,2.62,1.84-.29-.98-2.84.82-3.31.4-.1,5.63,3.16,6.03,3.06.84-.22-5.07.22-4.23,0,2.2-.56-7.06,6.76-4.87,6.21.21-.06,4.66,5.01,4.88,4.95,7.02-1.78,0,0,7.09-1.32,3.94-.73,28.93,52.4,28.93,103.99s-84.8,72.01-88.95,134.12c-4.15,62.11,98.21,100.82,131.31,103.28s135.45-39.03,136.03-106.25c.57-67.22-91.6-65.5-94.7-133.25-3.1-67.75,31.63-103.99,32.04-103.99,11.72-.04-38.39-19.99-27-17.81,9.04,1.73,18.03,3.93,27.01,6.23.36.09.71.19,1.08.28,1.75.45,3.5.89,5.25,1.35.63.16,1.27.33,1.91.5.28.07.57.15.87.23,1.57.41,3.11.75,4.73.86.56-.35,1.08-.77,1.55-1.27.25-.26.51-.52.77-.78.08-.08.31-.32.7-.72.32-.27.63-.53.96-.78.89-.78,1.62-1.62,2.39-2.54.62-.71,1.27-1.38,1.94-2.05,1.23-1.23,2.36-2.51,3.47-3.83.27-.33.55-.64.82-.97,1.5-1.77,2.98-3.55,4.46-5.32.56-.66,1.11-1.33,1.66-1.99.15-.18.29-.36.45-.53,1.86-2.23,3.74-4.42,5.69-6.56.6-.66,1.18-1.34,1.76-2.02,1.38-1.61,2.86-3.13,4.35-4.65.15-.15.29-.3.45-.46,2.28-2.32,4.62-4.46,7.24-6.36.08-.07.34-.26.78-.59.73-.54,1.48-1.06,2.24-1.56.05-.04.21-.15.49-.34.53-.37,1.07-.71,1.61-1.06.32-.22.65-.44.98-.65,2.23-1.06,5.55.48,7.79,1.12.31.09.62.18.95.27,1.01.29,2.04.58,3.05.88.35.1.7.2,1.06.31,25.99,7.52,51.7,16.99,75.78,29.52.8.42,1.61.82,2.41,1.23,8.83,4.45,17.39,9.26,25.79,14.49.97.6,1.96,1.21,2.95,1.79,3.5,2.06,6.85,4.34,10.2,6.64.23.16.47.33.71.5,4.35,2.99,8.66,6.02,12.87,9.19.23.18.48.36.72.54,2.13,1.61,4.24,3.27,6.31,4.96.19.16.39.32.58.48,2.29,1.87,4.56,3.76,6.79,5.7.99.85,2,1.69,3.01,2.52,1.81,1.5,3.49,3.12,5.18,4.74.78.74,1.57,1.48,2.39,2.18.99.86,1.91,1.78,2.82,2.74.58.57,1.17,1.11,1.78,1.64,1.46,1.29,2.84,2.67,4.2,4.08.08.08.33.33.74.75,1.31,1.33-20.57,20.63-19.37,22.06l-20.58,133.91-15.67,19.03,5.14,61.83-45.61,13.59,6.24,29.21-13.25,43.2-72.68,17.11"/>
  <path class="cls-1" d="M495.67,152c6.7,14.1,30.2,64.4,40.4,84.5,10.3,20.1,16.2,29.4,20.8,36.3,4.6,6.8,5.8,4.1,7,5M144.87,168.5l-78.5,109.3M66.37,277.8c-3.6-.8-24.77-10.32-25.5-13.6-5.2-22.7-24.77-115.27-27.5-127.4s-7.38-22.48.5-27.8c7.88-5.32,74.4-50.3,100.2-66.5,25.9-16.2,57.24-32.9,66.6-33s36.35,40.7,40.7,44,5.74,5.93,11,4.7,50.3-12.2,77.5-12.2,81.32,11.79,85.8,12.2,5.74.2,10-3.4c7.6-7,32.36-33.87,35.7-38.6s10.56-5.8,16-4.4,30.5,7.4,52,17.4,60.5,32.1,77.3,42.6c16.7,10.4,23.1,9.94,27.7,17.84,4.7,7.8,3.23,15.49.3,29.16-3.6,25.8-19.8,102.6-25.8,128.2-3.71,14.56-5.01,16.09-8.94,21.69s-13.56,8.11-16.06,9.11M97.43,234.55c-.6,3.9-3.77,31.25-7.37,43.25-3.7,12-6.33,35.57-9.33,47.17-3,11.5-16.78,45.08-6.28,47.58,10.4,2.5,36.84-2.51,52.93-6.43-5.31,7.75-31.42,40.88-5.31,81.46,10.69,18.95,27.57,12.05,42.8,12.22M563.87,277.8c.5,4,.8,15.2,3,24.4,2.47,21.05,19,47,10.8,50.8-8.3,3.8-41.7,2.3-50,2.8M527.67,355.8s17.81,14.44,10.23,49.93-33.03,36.47-33.03,36.47l-25.2,1.8M504.87,442.2c4.2,7,16.5,23.2,25.2,41.6,8.8,18.3,17.9,41.9,27.3,68.7s20.6,61.4,29.3,92c8.6,30.6,18.7,76.5,22.4,91.7M200.67,459l-35.8.8M164.87,459.8c-3.8,13.7-15.4,31.3-22.5,82.2s-16.9,186-20.3,223.2"/>
  <path class="cls-2" d="M222.79,151.55c2.91,2.16,5.02,4.89,5.72,8.5.29,3.49-.39,5.91-1.83,9.02-3.56,7.74-4.43,15.39-2.14,23.63.77,3.42,0,6.79-1.84,9.76-1.99,2.71-4.78,4.68-8.14,5.31-3.65.29-7.07-.15-9.95-2.56-4.99-4.65-6.24-11.62-6.51-18.23-.32-11.04,1.4-24.51,8.83-33.29,1.27-1.33,2.54-2.22,4.22-2.94.21-.1.42-.2.64-.3,3.55-1.43,7.77-.91,10.99,1.1h0Z"/>
  <path class="cls-2" d="M419.3,153.61c2.61,1.95,4.46,4.76,5.08,7.99.31,3.6-.56,6.53-2,9.8-2.4,5.62-3.53,12.18-2.81,18.27.46,4.27.71,8.36-1.91,12-.52.63-1.07,1.2-1.66,1.77-.17.17-.34.34-.51.52-2.56,2.42-5.79,3.01-9.2,2.98-3.31-.25-6.24-1.95-8.5-4.33-4.76-5.92-3.98-15.7-3.33-22.81.88-8.01,2.87-19.63,9.14-25.32.18-.17.37-.34.55-.52,4.43-3.71,10.46-3.33,15.13-.35h.02Z"/>
  <path class="cls-2" d="M312.9,222.89h1.03c6.07-.02,12.17.2,18.17,1.25.1,0,.41.07.92.16,6.42,1.17,12.12,3.16,16.98,7.67.18.16.35.32.53.48,2.98,3.06,4.41,7.54,4.52,11.68-.12,6.95-3.69,12.38-8.48,17.12-9.18,8.73-21.27,14.22-33.14,18.14.52,1.83,1.4,3.44,2.28,5.11.17.31.33.63.5.95.51.98,1.03,1.95,1.55,2.92.15.29.31.58.47.88,3.38,6.36,7.01,12.55,11.31,18.33.13.18.27.36.41.55.88,1.18,1.78,2.33,2.69,3.48.24.31.48.61.73.93,4,4.9,8.53,9.53,13.83,13.02.21.14.42.28.64.42,8.05,5.21,16.86,7.14,26.28,5.23,2.96-.72,5.68-1.85,8.42-3.17.34-.16.68-.33,1.02-.49,7.06-3.6,13.52-9.19,18.43-15.38.46-.57.92-1.12,1.4-1.67,2.84-3.26,5.16-6.91,7.46-10.57,2.15-3.38,4.73-5.79,8.71-6.78,3.67-.56,6.85.12,9.96,2.11,2.71,2.03,4.56,4.93,5.08,8.3.72,8.95-7.41,17.58-12.84,24.04-4.03,4.73-8.28,9.32-13.19,13.15-.35.29-.71.58-1.06.87-12.99,10.74-29.56,16.87-46.49,15.28-17.84-1.97-33.21-12.5-44.8-25.76-.27-.3-.53-.6-.81-.91-2.59-2.97-4.92-6.15-7.25-9.32-.98.92-1.61,2-2.31,3.14-2.66,4.33-5.64,8.42-8.85,12.36-.14.17-.28.34-.42.52-3.81,4.66-8.02,8.95-12.9,12.49-.32.24-.64.47-.97.72-10.2,7.33-22.54,11.02-35.08,9.14-1.01-.17-2.01-.36-3-.56-.08-.01-.32-.06-.72-.15-9.74-2.07-18.35-7.19-25.93-13.49-.29-.24-.59-.47-.9-.72-2.56-2.1-4.92-4.4-7.26-6.74-.16-.16-.32-.32-.48-.48-2.12-2.1-4.07-4.28-5.93-6.63-.32-.39-.64-.78-.95-1.17-5.93-7.27-8.71-13.19-8.34-17.74.8-3.77,2.83-6.41,5.89-8.68,3.07-1.71,6.55-2.07,9.98-1.34,4.15,1.4,6.64,4.54,9.01,8.07,2.52,3.69,5.5,7.09,8.59,10.32.16.17.32.34.48.51,6.44,6.82,15.58,13.78,25.35,14.2,8.09.11,14.44-4.17,20.11-9.54,11.85-11.57,18.74-27.79,25.19-42.76.49-1.14.85-1.94,1.08-2.39-.41-.03-.81-.07-1.22-.1-1.53-.17-2.87-.58-4.3-1.12-.25-.09-.51-.19-.77-.29-6.45-2.5-12.71-5.97-17.89-10.58-.27-.24-.54-.47-.82-.72-.77-.68-1.53-1.38-2.28-2.07-.19-.17-.37-.33-.57-.51-4.68-4.36-7.96-10.77-8.26-17.18-.08-5.2,1.74-9.76,5.31-13.51.24-.24.48-.48.73-.73.07-.07.29-.29.64-.66,6.54-6.24,16.74-8.02,25.39-8.95.3-.03.6-.07.9-.1,5.4-.55,10.81-.59,16.24-.6v.02h0Z"/>
  <path class="cls-2" d="M716.54,472.05c2.18,1.58,3.46,3.25,4.52,5.73.03.07.13.29.29.66,1.02,2.39,1.92,4.82,2.79,7.27.09.24.17.48.26.72,7.47,20.86,12.36,42.37,14.54,64.42.02.22.04.44.07.66,1.17,11.89,1.16,24.33-.07,36.22-.02.23-.05.47-.07.71-2.72,26.13-9.95,51.76-24.1,77.39-.15.27-.3.54-.46.82-3.35,6.02-7.03,11.84-11.01,17.46-.05.07-.21.3-.48.68-2.23,3.15-4.53,6.23-6.95,9.24-.08.1-.32.39-.71.88-2.45,3.02-4.95,6-7.57,8.88-.58.64-1.15,1.3-1.72,1.95-1.14,1.31-2.32,2.58-3.51,3.85-.21.23-.43.46-.65.69-2.54,2.68-5.09,5.37-7.91,7.76-.57.5-1.1,1.02-1.63,1.56-1.13,1.15-2.34,2.2-3.56,3.25-.32.28-.65.56-.97.84-2.32,2.01-4.68,3.94-7.1,5.82-.67.51-1.33,1.04-1.99,1.56-7.96,6.27-14.21,9.22-18.76,8.83-3.52-.7-6.31-2.65-8.37-5.58-1.87-3.11-2.37-6.42-1.66-10,1.24-4.16,4.17-6.61,7.66-8.93,3.95-2.67,7.71-5.59,11.35-8.66.05-.05.22-.18.49-.41,4.04-3.39,7.89-6.99,11.6-10.75.9-.9,1.8-1.8,2.71-2.7.43-.42.86-.85,1.28-1.27.21-.21.42-.42.64-.63,1.42-1.41,2.75-2.87,4.05-4.39.3-.35.6-.69.9-1.04,2-2.3,3.91-4.65,5.77-7.06.46-.58.92-1.16,1.39-1.73,5.23-6.47,9.85-13.62,13.94-20.85.15-.26.29-.52.45-.79,1.12-2,2.21-4.01,3.27-6.03.16-.3.32-.6.49-.92,10.69-20.33,16.85-43.13,18.42-66.02.03-.4.06-.79.08-1.2.24-3.74.29-7.48.29-11.24v-.94c-.04-24.22-4.91-47.89-12.71-70.76-.1-.28-.19-.56-.29-.85-1.07-3.12-2.18-6.22-3.42-9.28-1.28-3.2-1.54-6.78-.39-10.07,1.78-3.94,4.54-6.05,8.46-7.63,3.84-.71,7.07-.17,10.38,1.88h-.03Z"/>
  <path class="cls-2" d="M325.39,638.93c3.58,2.67,4.77,6.33,5.4,10.59.12.86.24,1.73.35,2.59.09.64.18,1.28.27,1.92.29,2.06.56,4.12.83,6.19.09.66.17,1.32.26,1.98,3.17,24.13,5.93,48.34,7.98,80.51.01.22.02.44.04.67.56,9.69.86,19.36.85,29.06v.73c0,7.2-.04,14.38-.68,21.56-.03.37-.07.73-.1,1.11-.36,3.99-.9,7.92-1.59,11.87-.02.11-.08.46-.18,1.05-.92,5.06-2.21,9.47-6.5,12.62-.8.5-1.6.89-2.48,1.24-.32.13-.64.26-.97.39-3.85.74-7.1.19-10.42-1.86-2.84-2.04-4.29-4.56-5.23-7.9-.38-2.9.15-5.53.76-8.37,1.73-8.37,2.27-16.9,2.29-25.43v-7.17c0-10.62-.31-21.18-1.01-31.78-.02-.39-.05-.77-.08-1.17-1.75-27.29-4.7-54.58-8.92-83.48-.94-6.26-.57-10.74,1.11-13.44,4.41-5.95,11.63-7.56,17.99-3.49h.03Z"/>
  <path class="cls-2" d="M390.19,641.12c2.95,2.19,4.47,5.35,5.06,8.9.08,1.07.08,2.14.07,3.21v6.33c0,1.62,0,3.24-.01,4.86,0,2.37-.01,4.74-.02,7.12,0,3.89,0,7.78-.02,11.67v.71c0,2.33-.01,4.66-.02,7-.01,6.53-.03,13.06-.03,19.59v.67c0,12.02.05,24.03.32,36.04,0,.29.02.57.02.87.75,32.55,2.21,54.86,4.38,66.95.64,3.72.59,7.29-1.46,10.57-2.16,2.91-4.89,5.01-8.5,5.72-3.9.29-7.06-.44-10.23-2.79-9.9-8.95-7.48-35.96-8.11-48.17-.38-7.6-.64-15.2-.88-22.8,0-.28-.02-.56-.02-.85-.08-2.69-.15-5.38-.21-8.07,0-.27-.01-.54-.02-.82-.01-.58-.02-1.17-.04-1.75-.02-.9-.04-1.79-.06-2.69-.33-15.55-.32-31.11-.31-46.66v-22.28c0-4.21.01-8.43.04-12.64v-.9c.01-1.77.03-3.54.06-5.31,0-.54.02-1.08.02-1.63.04-4.75.7-8.42,4.17-11.92,4.52-4.14,10.76-4.13,15.79-.92h0Z"/>
  </g>
</svg>