<?xml version="1.0" encoding="UTF-8"?>
<svg xmlns="http://www.w3.org/2000/svg" version="1.1" viewBox="0 0 786.04 842.09">
  <defs>
    <filter id="fuzpen" x="-20%" y="-20%" width="140%" height="140%">
      <feTurbulence type="fractalNoise" baseFrequency="0.011" numOctaves="2" seed="5" result="n"/>
      <feDisplacementMap in="SourceGraphic" in2="n" scale="22" xChannelSelector="R" yChannelSelector="G"/>
    </filter>
    <style>
      .ink { fill: #000; }
      .blue { fill: #2461d3; }
    </style>
  </defs>
  <g filter="url(#fuzpen)">
    <path class="ink" d="M527.45.54c19.67-1.11,24.35,20.94,31.11,35.25,2.69,5.68,4.8,12.06,7.22,17.88,11.91,28.68,11.68,60.32,23.64,88.96,4.9,11.75,12.7,21.92,19.22,32.78,18.04,28.53,30.43,50.85,38.77,83.68l4.96,21.88c2.28,13.14,4.26,26.34,5.93,39.58l1.34,22.76c3.46,36.46-1.07,70.77-18.08,103.54-5.65,10.88-12.52,21.57-21.35,30.18-7.91,7.71-25.9,18.31-30.81,25.99-2.48,3.88-2.62,8.24-1.36,12.54,2.33,7.96,6.82,15.55,9.98,23.25,6.25,15.22,11.91,30.96,17.15,46.55,11.03,32.8,16.34,66.97,25.29,100.31,6.1,22.73,15.5,44.46,20.53,67.53,2.53,11.58,6.43,37.6-.77,47.93-1.79,2.57-4.44,4.13-7.54,4.57-3.18.44-6.24-.36-8.8-2.3-15.75-12.02-17.73-70.38-22.13-90.08-3.88-17.4-9.8-34.22-13.9-51.56-5.45-23.04-8.83-46.71-15.94-69.35-2.32-7.4-5.08-14.66-8.25-21.74-6.96-15.21-17.61-33.4-19.11-49.72-.54-5.92-.87-24.02.63-29.06,3.44-11.57,18.83-21.5,27.88-29.37,5.15-4.41,9.92-9.24,14.27-14.44,17.2-20.74,29.9-46.36,30.41-73.73.17-9.18-1.42-20.91-2.27-30.36l-2.38-22.79c-1.55-12.64-3.19-24.05-5.71-36.53l-4.32-21.86c-6.04-23.37-13.07-40.34-26.78-60.53-11.49-16.93-24.93-34.12-32.93-52.91-6.45-15.13-9.99-30.88-11.51-47.19-.94-10.1-2.11-22.36-4.71-31.94-1.47-5.41-14.15-35.28-17.8-37.29-3.85.86-7.11,7.35-9.47,11.09-9.54,15.19-17.18,31.5-22.75,48.56-1.94,6.13-4.78,15.91-5.9,22.85-1.47,9.11-.48,23.62-14.78,23.96-6.57.16-16.48-4.77-23.69-6.1-14.53-2.66-29.42-3.64-44.22-3.16-30.59,1.06-61.9,4.57-91.74,11.43-4.9,1.13-10.74,2.75-15.33,4.65-6.04,2.51-10.59,8.46-17.81,8.33-4.84-.09-10.71-3.47-13.32-7.52-4.76-7.4-9.12-23-12.18-30-4.32-9.86-29.87-63.05-34.72-68.07-4.62-1.51-12.95,11.38-15.69,15-21.56,28.55-37.43,60.43-49.42,94.05-5.62,16-8.96,30.84-13.53,47.02-2.63,9.29-7.76,19.34-10.97,28.54-3.56,10.22-5.57,21.04-7.62,31.64l-4.89,130.02c11.65,36.48,36.18,66.02,69.75,85.15,9.04,5.15,21.66,8.76,30.48,14.39,3.53,2.26,5.24,6.71,5.65,10.81,1.46,14.66-12.57,11.76-18.75,19.96-5.6,7.43-4.77,23.71-5.66,32.92-.92,9.5-2.44,18.42-2.7,27.9-.46,17.29,1.13,35.95.1,53.06-1.5,17.42-3.25,35.18-4.68,52.57-2.7,32.8.55,64.87,5.51,97.28,1.35,8.83-2.11,21.02-12.69,21.24-3.72.1-7.31-1.36-9.92-4-10.85-10.94-6.08-59.02-5.63-74.97l4.63-137.39c.51-18.66-1.53-39.76-.61-57.85.47-9.26,4.6-11.17,4.25-26.34-6.23-9.27-21.87-14.87-31.53-22.09-17.52-13.08-23.89-25.44-34.72-43.08-9.98-16.25-14.25-20.13-20.28-38.7l-3.43-21.71c-3.07-14.35-4.62-28.99-4.62-43.67l1.02-21.97c.27-8.34,4.48-23.07,6.62-31.9l3.91-20.72c6.3-27.59,12.07-44.63,21.02-71.67,13.17-40.48,27.19-82.44,49.94-118.83,8.2-13.11,37.26-55.72,52.21-58.64,22.56-4.4,32.61,32.47,40.3,46.7,8.17,15.13,16.93,38.37,29.26,50.41,3.69,3.33,35-1.68,40.85-2.63,44.97-7.36,88.37-3.1,133.17,1.5,4.32.44,9.6-30.11,11.75-33.85,8.71-19.75,32.16-70.11,50.87-78.57h.08"/>
    <path class="blue" d="M340.13,298.09c11.49-1.27,43.26,1.79,41.17,19.04-1.07,8.87-12.43,16.13-19.25,21.17,5.04,18.34,21.37,29.5,39.98,25.15,15.65-3.66,23.04-17.58,29.6-30.61,5.32-10.56,18.56-9.02,20.82,2.61.79,4.1-1.69,9.3-3.49,12.86-17.3,38.07-57.89,52.63-91.68,24.72l-6.45-6.81c-6.23,7.83-10.71,13.1-18.85,18.91-21.93,15.79-51.28,10.33-68.78-9.42-6.32-7.13-20.25-30.35-9.44-38.21,11.37-8.26,17.58,11.27,22.65,18.53,11.18,16.03,28.83,20.58,45.21,8.24,9.86-7.46,13.19-15.95,14.83-27.84-7.58-6.26-21.07-17-14.47-28.88,3.58-6.45,11.49-7.88,18.15-9.48v.02Z"/>
    <path class="blue" d="M713.72,608.78c5.92-.76,15.63.53,21.13,2.64,43.43,16.73,54.76,75.75,41.96,115.89-2.62,7.23-8.66,12.38-16.28,8.68-10.21-4.97-5.51-16.29-3.86-25.37,2.9-15.94,2.55-29.69-2.01-45.37-11.25-32.75-41.36-50.24-66.55-16.43-5.22,7-7.12,14.43-11.28,21.11-11.37,18.26-29.16.51-18.16-16.03,12.46-23.66,27.29-41.77,55.05-45.12h0Z"/>
    <path class="blue" d="M471.06,664.74c4.84-.21,11.81,1.7,12.74,6.37,1.59,7.97-1.41,22.99-2.28,31l-7.59,68.08c-1.97,17.73-3.49,35.5-5.64,53.2-1.22,10.05-.95,14.38-10.92,18.7-9.1.05-13.71-5.1-13.51-14.09.24-10.99,1.45-21.9,2.53-32.83,2.42-24.37,5.33-48.67,8.71-72.91,1.99-15.29,3.67-32.51,6.95-47.59,1.06-4.87,4.78-7.71,9.02-9.94h-.01Z"/>
    <path class="blue" d="M353.15,668.83c.93,0,1.85.01,2.77.13,3.43.44,6.63,2.08,8.64,4.94,10.36,14.78,38.21,134.36,34.52,149.72-1.03,4.27-3.85,6.47-7.52,8.54-15.42.15-15.97-23.56-18.7-35.73-7.47-33.4-13.34-67.37-23.49-100.11-3.54-11.43-8.91-20.45,3.78-27.49h0Z"/>
    <path class="blue" d="M253.79,233.63c23.47-3.27,14.03,23.99,8.63,35.39-5.25,11.1-6.98,24.94-20.5,29.01-32.33.11-9.39-52.86,11.87-64.39h0Z"/>
    <path class="blue" d="M458.15,235.73c21.6,1.77,10.27,28.73,6.89,41.31-2.96,11.01-5.46,17.2-16.89,19.86-21.23-5.97-14.13-31.82-6.42-46.12,3.61-6.69,8.84-12.95,16.43-15.05h-.01Z"/>
    <path class="blue" d="M192.4,265.16l-2.4-.3-2.3-.2-2.4-.3-2.4-.2-2.4-.2-2.3-.2-2.4-.2-2.4-.2-2.3-.1-2.4-.2-2.4-.2-2.4-.1-2.3-.2-2.4-.1-2.4-.1-2.4-.1-2.3-.1-2.4-.1-2.4-.1h-2.3l-2.4-.1h-2.4l-2.4-.1h-16.6l-2.3.1h-2.4l-2.4.1h-2.3l-2.4.1-2.4.1-2.3.1-2.4.1-2.4.1-2.3.2-2.4.1-2.4.2-2.3.1-2.4.2-2.4.2-2.3.1-2.4.2-2.3.2-2.4.3-2.4.2-2.3.2-2.4.3-2.3.2-2.4.3-2.3.2-2.4.3-2.3.3-2.4.3-2.3.3-2.4.4-2.3.3-2.4.3-2.3.4-2.4.3-2.3.4-2.4.4-2.3.4-2.4.4-2.3.4-2.3.4-2.4.4-2.3.5-2.4.4-2.3.5-2.3.4-2.4.5-2.3.5-2.3.5-2.4.5-1.7.5-1.6.9-1.2,1.4-.9,1.6-.5,1.7.1,1.9.5,1.7.9,1.6,1.4,1.2,1.6.9,1.7.5,1.9-.1,2.3-.2,2.3-.2,2.3-.2,2.4-.1,2.3-.2,2.3-.2,2.3-.1,2.4-.2,2.3-.2,2.3-.1,2.3-.1,2.3-.2,2.3-.1,2.3-.1,2.4-.1,2.3-.1,2.3-.2,2.3-.1h2.3l2.3-.1,2.3-.1,2.3-.1,2.3-.1h2.3l2.3-.1h2.3l2.3-.1h2.3l2.3-.1h6.9l2.3-.1h9.2l2.3.1h6.9l2.3.1h2.3l2.3.1h2.3l2.2.1,2.3.1h2.3l2.3.1,2.3.1,2.3.1,2.3.1,2.3.1,2.2.1,2.3.1,2.3.1,2.3.1,2.3.1,2.3.2,2.3.1,2.3.2,2.2.1,2.3.2,2.3.1,2.3.2,2.3.2,2.3.1,2.2.2,2.3.2,2.3.2,2.3.2,2.3.2,2.3.2,2.3.3,2.2.2,2.3.2,2.3.2,2.3.3,2.3.2,3.4-.1,3.2-.9,2.9-1.8,2.4-2.4,1.6-3,.8-3.3-.1-3.4-.9-3.2-1.8-2.9-2.4-2.4-3-1.6-3.3-.8Z"/>
    <path class="blue" d="M164.3,307.16l-1.9.3-2,.2-1.9.3-1.9.3-1.9.3-2,.3-1.9.3-1.9.3-1.9.3-2,.3-1.9.3-1.9.3-1.9.4-1.9.3-1.9.4-2,.3-1.9.4-1.9.3-1.9.4-1.9.4-1.9.4-1.9.3-2,.4-1.9.4-1.9.4-1.9.5-1.9.4-1.9.4-1.9.4-1.9.5-1.9.4-1.9.5-1.9.4-1.9.5-1.9.4-1.9.5-1.9.5-1.9.5-1.9.5-1.9.5-1.9.5-1.9.5-1.9.5-1.8.5-1.9.5-1.9.6-1.9.5-1.9.6-1.9.5-1.9.6-1.8.5-1.9.6-1.9.6-1.9.6-1.9.5-1.8.6-1.9.6-1.9.6-1.8.7-1.9.6-1.9.6-1.8.6-1.9.7-1.9.6-1.8.6-1.9.7-1.9.7-1.8.6-1.9.7-1.8.7-1.9.6-1.8.7-1.9.7-1.8.7-1.9.7-1.8.7-1.9.8-1.8.7-1.9.7-1.6.8-1.4,1.1-1.1,1.5-.6,1.8-.2,1.8.3,1.8.8,1.6,1.1,1.4,1.5,1.1,1.8.6,1.8.2,1.8-.3,1.9-.4,1.9-.5,1.9-.4,1.9-.4,1.9-.4,1.9-.5,1.9-.4,1.9-.4,1.9-.4,1.9-.4,1.9-.4,1.9-.4,1.9-.4,1.9-.4,1.9-.4,1.8-.4,1.9-.4,1.9-.4,1.9-.4,1.9-.4,1.9-.4,1.9-.3,1.9-.4,1.9-.4,1.8-.4,1.9-.3,1.9-.4,1.9-.4,1.9-.3,1.9-.4,1.9-.4,1.8-.3,1.9-.4,1.9-.3,1.9-.4,1.9-.3,1.8-.4,1.9-.3,1.9-.4,1.9-.3,1.9-.3,1.8-.4,1.9-.3,1.9-.3,1.9-.3,1.8-.4,1.9-.3,1.9-.3,1.9-.3,1.8-.3,1.9-.4,1.9-.3,1.9-.3,1.8-.3,1.9-.3,1.9-.3,1.9-.3,1.8-.3,1.9-.3,1.9-.3,1.8-.3,1.9-.3,1.9-.2,1.9-.3,1.8-.3,1.9-.3,1.9-.3,1.8-.2,1.9-.3,1.9-.3,1.9-.2,1.8-.3,1.9-.3,1.9-.2,1.8-.3,1.9-.3,1.9-.2,1.8-.3,1.9-.2,3.3-.9,2.9-1.7,2.4-2.4,1.7-2.9.9-3.3v-3.4l-.9-3.3-1.7-2.9-2.4-2.4-2.9-1.7-3.3-.9h-3.4Z"/>
    <path class="blue" d="M178.4,357.56l-1.9.6-2,.5-2,.6-2,.6-1.9.6-2,.6-2,.6-1.9.6-2,.6-2,.7-1.9.6-2,.6-2,.7-1.9.6-2,.7-1.9.7-2,.6-2,.7-1.9.7-2,.7-1.9.7-2,.7-1.9.7-1.9.7-2,.7-1.9.7-2,.8-1.9.7-1.9.8-2,.7-1.9.8-2,.7-1.9.8-1.9.8-1.9.8-2,.7-1.9.8-1.9.8-1.9.8-2,.9-1.9.8-1.9.8-1.9.8-1.9.9-1.9.8-1.9.9-2,.8-1.9.9-1.9.9-1.9.8-1.9.9-1.9.9-1.9.9-1.9.9-1.9.9-1.8.9-1.9.9-1.9,1-1.9.9-1.9.9-1.9,1-1.9.9-1.8,1-1.9.9-1.9,1-1.9,1-1.8,1-1.9,1-1.9.9-1.8,1-1.9,1-1.9,1.1-1.8,1-1.9,1-1.8,1-1.9,1.1-1.8,1-1.9,1-1.8,1.1-1.6,1-1.2,1.3-.8,1.7-.4,1.8.1,1.8.6,1.7,1,1.6,1.3,1.2,1.7.8,1.8.4,1.8-.1,1.7-.6,2-.8,1.9-.7,2-.8,1.9-.7,2-.8,1.9-.7,2-.8,1.9-.7,2-.8,1.9-.7,2-.8,1.9-.7,1.9-.7,2-.8,1.9-.7,2-.7,1.9-.7,1.9-.7,2-.8,1.9-.7,2-.7,1.9-.7,1.9-.7,2-.7,1.9-.7,1.9-.7,2-.7,1.9-.6,1.9-.7,2-.7,1.9-.7,1.9-.7,2-.6,1.9-.7,1.9-.7,1.9-.6,2-.7,1.9-.7,1.9-.6,2-.7,1.9-.6,1.9-.7,1.9-.6,2-.7,1.9-.6,1.9-.7,2-.6,1.9-.6,1.9-.6,1.9-.7,1.9-.6,2-.6,1.9-.6,1.9-.7,1.9-.6,2-.6,1.9-.6,1.9-.6,1.9-.6,2-.6,1.9-.6,1.9-.6,1.9-.6,1.9-.6,2-.6,1.9-.5,1.9-.6,1.9-.6,2-.6,1.9-.6,1.9-.5,1.9-.6,1.9-.6,2-.5,1.9-.6,1.9-.5,1.9-.6,1.9-.5,2-.6,3.1-1.4,2.6-2.1,2.1-2.7,1.2-3.1.4-3.4-.5-3.4-1.4-3.1-2.1-2.6-2.7-2.1-3.1-1.2-3.4-.4-3.4.5Z"/>
    <path class="blue" d="M557.4,295.86l2-.4,2-.4,2-.3,2-.4,1.9-.3,2-.4,2-.3,2-.4,2-.3,2-.4,2-.3,2-.3,1.9-.4,2-.3,2-.3,2-.3,2-.3,2-.3,2-.3,1.9-.3,2-.3,2-.3,2-.3,2-.3,2-.3,2-.3,1.9-.2,2-.3,2-.3,2-.2,2-.3,2-.2,1.9-.3,2-.2,2-.3,2-.2,2-.3,2-.2,2-.2,2-.2,1.9-.3,2-.2,2-.2,2-.2,2-.2,2-.2,2-.2,2-.2,2-.2,1.9-.2,2-.2,2-.2,2-.1,2-.2,2-.2,2-.1,2-.2,2-.2,2-.1,2-.2,2-.1,2-.2,2-.1,2-.1,2-.2,2-.1,2-.1,2-.1,2-.1,2-.2,2-.1,2-.1,2-.1,2-.1,2-.1,2-.1h2l2-.1,2-.1,1.9-.2,1.7-.6,1.5-1.1,1.1-1.4.8-1.6.3-1.8-.2-1.9-.6-1.7-1.1-1.5-1.4-1.1-1.6-.8-1.8-.3-2.1-.2-2-.2-2.1-.2-2-.2-2-.2-2.1-.2-2-.2-2.1-.2-2-.1-2.1-.2-2-.1-2.1-.2-2-.1-2.1-.1-2-.2-2.1-.1-2-.1-2.1-.1h-2l-2.1-.1-2-.1h-2.1l-2.1-.1h-2l-2.1-.1h-4.1l-2.1-.1h-6.1l-2.1.1h-4.1l-2.1.1h-2l-2.1.1h-2.1l-2,.1-2.1.1-2.1.1-2,.1-2.1.1-2,.1-2.1.1-2.1.1-2,.1-2.1.2-2.1.1-2,.2-2.1.2-2.1.1-2,.2-2.1.2-2.1.2-2,.2-2.1.2-2.1.2-2,.2-2.1.3-2.1.2-2,.3-2.1.2-2.1.3-2,.3-2.1.3-2,.2-2.1.3-2.1.3-2,.4-2.1.3-2.1.3-2,.3-2.1.4-2.1.3-2,.4-2.1.4-2,.3-2.1.4-3.2,1.1-2.9,1.8-2.2,2.6-1.6,3-.7,3.3.2,3.4,1.1,3.2,1.8,2.9,2.6,2.2,3,1.6,3.3.7,3.4-.2Z"/>
    <path class="blue" d="M550.7,351.96l2.1-.3,2-.3,2-.2,2-.3,2-.2,2.1-.3,2-.3,2-.2,2-.3,2-.2,2.1-.2,2-.3,2-.2,2-.2,2-.3,2.1-.2,2-.2,2-.2,2-.3,2.1-.2,2-.2,2-.2,2-.2,2-.2,2.1-.2,2-.2,2-.2,2-.2,2.1-.2,2-.1,2-.2,2.1-.2,2-.2,2-.1,2-.2,2.1-.2,2-.1,2-.2,2.1-.1,2-.2,2-.1,2.1-.2,2-.1,2-.2,2.1-.1,2-.1,2-.2,2.1-.1,2-.1,2-.1,2.1-.1,2-.1,2.1-.2,2-.1,2.1-.1,2-.1,2-.1,2.1-.1,2-.1h2.1l2-.1,2.1-.1,2-.1,2.1-.1h2l2.1-.1,2-.1h2.1l2.1-.1h2l2.1-.1,2-.1h4.1l2.1-.1h2.1l2-.1h4.2l1.8-.1,1.7-.6,1.5-1.1,1.2-1.3.8-1.7.4-1.8-.1-1.8-.6-1.7-1.1-1.5-1.3-1.2-1.7-.8-1.8-.4-2.1-.3-2-.2-2.1-.3-2.1-.2-2.1-.3-2.1-.2-2.1-.3-2.1-.2-2-.2-2.1-.2-2.1-.2-2.1-.2-2.1-.2-2.1-.2-2.1-.2-2.1-.2-2.1-.1-2.1-.2-2.1-.1-2-.2-2.1-.1-2.1-.1-2.1-.1-2.1-.2-2.1-.1-2.1-.1h-2.1l-2.1-.1-2.1-.1-2.1-.1h-2.1l-2.1-.1h-2.1l-2.1-.1h-2l-2.1-.1h-12.6l-2.1.1h-4.2l-2.1.1h-2.1l-2.1.1h-2.1l-2.1.1-2.1.1-2.1.1-2,.1-2.1.1-2.1.1-2.1.1-2.1.1-2.1.1-2.1.2-2.1.1-2.1.2-2.1.1-2.1.2-2.1.2-2,.2-2.1.1-2.1.2-2.1.2-2.1.2-2.1.3-2.1.2-2.1.2-2,.2-2.1.3-2.1.2-2.1.3-2.1.3-2.1.2-2,.3-3.3.9-3,1.7-2.3,2.4-1.7,3-.9,3.3v3.3l.9,3.3,1.7,3,2.4,2.3,3,1.7,3.3.9h3.3Z"/>
    <path class="blue" d="M582.4,382.56l2,.6,1.9.5,1.9.6,1.9.5,1.9.6,2,.5,1.9.6,1.9.6,1.9.5,1.9.6,2,.6,1.9.6,1.9.6,1.9.5,2,.6,1.9.6,1.9.6,1.9.6,1.9.6,2,.6,1.9.6,1.9.6,1.9.6,2,.6,1.9.6,1.9.7,1.9.6,2,.6,1.9.6,1.9.7,1.9.6,1.9.6,2,.6,1.9.7,1.9.6,2,.7,1.9.6,1.9.7,1.9.6,2,.7,1.9.6,1.9.7,2,.7,1.9.6,1.9.7,1.9.7,2,.6,1.9.7,1.9.7,2,.7,1.9.7,1.9.6,2,.7,1.9.7,1.9.7,2,.7,1.9.7,1.9.7,2,.7,1.9.7,2,.8,1.9.7,1.9.7,2,.7,1.9.7,2,.8,1.9.7,1.9.7,2,.8,1.9.7,2,.8,1.9.7,2,.8,1.9.7,2,.8,1.9.7,2,.8,1.9.7,2,.8,1.7.6,1.8.1,1.8-.4,1.7-.8,1.3-1.2,1-1.6.6-1.7.1-1.8-.4-1.8-.8-1.7-1.2-1.3-1.6-1-1.8-1.1-1.9-1-1.8-1-1.9-1.1-1.8-1-1.9-1-1.8-1-1.9-1.1-1.9-1-1.8-1-1.9-.9-1.9-1-1.8-1-1.9-1-1.9-1-1.9-.9-1.8-1-1.9-.9-1.9-1-1.9-.9-1.9-.9-1.9-1-1.9-.9-1.8-.9-1.9-.9-1.9-.9-1.9-.9-1.9-.9-1.9-.9-1.9-.8-1.9-.9-1.9-.9-2-.8-1.9-.9-1.9-.8-1.9-.9-1.9-.8-1.9-.8-1.9-.8-2-.9-1.9-.8-1.9-.8-1.9-.8-2-.7-1.9-.8-1.9-.8-1.9-.8-2-.7-1.9-.8-2-.7-1.9-.8-1.9-.7-2-.8-1.9-.7-2-.7-1.9-.7-1.9-.7-2-.7-1.9-.7-2-.7-1.9-.7-2-.7-2-.6-1.9-.7-2-.7-1.9-.6-2-.7-2-.6-1.9-.6-2-.7-2-.6-1.9-.6-2-.6-2-.6-1.9-.6-2-.6-2-.6-2-.5-1.9-.6-3.4-.5-3.4.4-3.1,1.2-2.7,2.1-2.1,2.6-1.4,3.1-.5,3.4.4,3.4,1.2,3.1,2.1,2.7,2.6,2.1,3.1,1.4Z"/>
  </g>
</svg>
